<svg width="78" height="22" viewBox="0 0 78 22" fill="none" xmlns="http://www.w3.org/2000/svg">
<path d="M11.8607 21.5513C8.93199 21.5513 6.33716 20.6164 4.07625 18.7466C1.81534 16.8768 0.684875 14.2915 0.684875 10.9908C0.684875 7.77593 1.78195 5.20021 3.97608 3.26364C6.17975 1.31754 8.80794 0.344482 11.8607 0.344482C12.9578 0.344482 14.1216 0.468499 15.3522 0.716534C16.5924 0.955026 17.7705 1.43201 18.8867 2.14749L18.5432 5.1525C18.5051 5.32422 18.4097 5.41007 18.2571 5.41007H18.2141C18.0996 5.40056 17.9757 5.267 17.8421 5.00941C17.222 3.68339 16.4493 2.80096 15.5239 2.36213C14.6081 1.92331 13.387 1.70389 11.8607 1.70389C9.73328 1.70389 7.83967 2.44322 6.17975 3.92188C4.51984 5.40056 3.68989 7.75685 3.68989 10.9908C3.68989 13.0705 4.46261 15.0786 6.00805 17.0151C7.56304 18.9517 9.51387 19.9772 11.8607 20.0917C12.0896 20.1013 12.309 20.106 12.5189 20.106C13.6064 20.106 14.5223 19.9629 15.2663 19.6767C16.1535 19.3333 16.8976 18.6369 17.4986 17.5875V14.8973C17.4796 14.6016 17.3269 14.3727 17.0407 14.2105C16.7832 14.0769 16.4064 13.91 15.9103 13.7097C15.4142 13.4998 15.1662 13.2946 15.1662 13.0944C15.1662 12.894 15.2663 12.7938 15.4667 12.7938H21.2048C21.4052 12.7938 21.5053 12.894 21.5053 13.0944C21.5053 13.3423 21.2668 13.5522 20.7898 13.7239C20.3129 13.8957 20.0744 14.2868 20.0744 14.8973V20.4638C18.6052 20.5305 17.1886 20.7357 15.8244 21.0791C15.1376 21.2603 14.4603 21.3844 13.7925 21.4512C13.1247 21.5179 12.4807 21.5513 11.8607 21.5513ZM26.4278 0.988416C27.4676 0.988416 27.9876 1.5131 27.9876 2.56247C27.9876 3.62138 27.4676 4.15083 26.4278 4.15083C25.388 4.15083 24.8681 3.62138 24.8681 2.56247C24.8681 1.5131 25.388 0.988416 26.4278 0.988416ZM27.7157 18.9326C27.7157 19.5527 27.9542 19.9486 28.4312 20.1203C28.9082 20.2825 29.1466 20.4828 29.1466 20.7214C29.1466 20.9217 29.0513 21.0218 28.8604 21.0218H24.0095C23.8092 21.0218 23.709 20.9217 23.709 20.7214C23.709 20.4828 23.9475 20.2825 24.4245 20.1203C24.9015 19.9486 25.14 19.5527 25.14 18.9326V9.77452C25.14 9.17351 24.9015 8.78712 24.4245 8.61542C23.9475 8.44372 23.709 8.23382 23.709 7.98583C23.709 7.78549 23.8092 7.68529 24.0095 7.68529C24.6391 7.65666 25.2592 7.5613 25.8698 7.39911C26.4899 7.2274 27.1052 7.03663 27.7157 6.82673V18.9326ZM35.7863 8.81576C36.311 8.61542 36.7736 8.43894 37.1743 8.28631C37.575 8.13368 37.9566 7.99534 38.3191 7.87134C39.1968 7.56608 40.1078 7.36574 41.0522 7.27033C41.1667 7.26077 41.2859 7.25604 41.41 7.25604C42.2113 7.25604 42.9745 7.52788 43.6995 8.07168C44.8538 8.95888 45.431 10.8621 45.431 13.7812V18.9326C45.431 19.5527 45.6695 19.9486 46.1465 20.1203C46.6234 20.2825 46.8619 20.4828 46.8619 20.7214C46.8619 20.9217 46.7666 21.0218 46.5757 21.0218H43.0985C42.9363 21.0218 42.8552 20.9598 42.8552 20.8358V13.7812C42.8552 11.692 42.4212 10.2229 41.5531 9.37384C40.9997 8.83005 40.3224 8.5582 39.5211 8.5582C39.0632 8.5582 38.5624 8.64884 38.0186 8.83005C37.8087 8.90639 37.5416 9.00653 37.2172 9.13058C36.9025 9.24507 36.6306 9.34521 36.4016 9.43106C36.1727 9.51691 35.9676 9.59325 35.7863 9.66003V18.9326C35.7863 19.5527 36.0248 19.9486 36.5018 20.1203C36.9788 20.2825 37.2172 20.4828 37.2172 20.7214C37.2172 20.9217 37.1219 21.0218 36.9311 21.0218H32.0801C31.8798 21.0218 31.7796 20.9217 31.7796 20.7214C31.7796 20.4828 32.0181 20.2825 32.4951 20.1203C32.9721 19.9486 33.2106 19.5527 33.2106 18.9326V9.77452C33.2106 9.17351 32.9721 8.78712 32.4951 8.61542C32.0181 8.44372 31.7796 8.23382 31.7796 7.98583C31.7796 7.78549 31.8798 7.68529 32.0801 7.68529C32.7097 7.65666 33.3298 7.5613 33.9404 7.39911C34.5605 7.2274 35.1758 7.03663 35.7863 6.82673V8.81576ZM60.9998 8.42943L51.8704 19.8914H58.0804C58.5671 19.8723 58.9776 19.7054 59.3112 19.3906C59.6454 19.0757 60.0172 18.6321 60.4276 18.0598C60.6661 17.7354 60.8187 17.5732 60.8853 17.5732C61.0572 17.5732 61.1427 17.6591 61.1427 17.8308V20.0917C61.1427 20.5592 61.0811 20.8311 60.957 20.9074C60.8329 20.9837 60.4322 21.0218 59.7547 21.0218L49.9528 21.0361C49.2659 21.0266 48.8032 20.9837 48.5648 20.9074C48.4503 20.8787 48.3931 20.8167 48.3931 20.7214C48.3931 20.6164 48.4693 20.4733 48.622 20.2921L57.6659 8.70127H52.6287C52.1328 8.70127 51.7321 8.85868 51.4269 9.17351C51.1214 9.48833 50.7684 9.92715 50.3678 10.49C50.1293 10.8048 49.9766 10.9622 49.9099 10.9622C49.7286 10.9622 49.638 10.8811 49.638 10.7189V8.44372C49.638 8.01441 49.7143 7.75207 49.8669 7.65666C50.0196 7.55174 50.4107 7.4993 51.0403 7.4993H59.9409C60.7897 7.4993 61.2144 7.65193 61.2144 7.95719C61.2144 8.09075 61.1427 8.24816 60.9998 8.42943ZM73.6639 19.7769L69.7289 21.2222C69.4232 21.3271 69.1704 21.3796 68.97 21.3796H68.3836C67.0287 21.3128 65.8605 20.7595 64.8778 19.7197C63.8952 18.6798 63.3373 17.4015 63.2035 15.8847C63.1654 15.484 63.1461 15.0977 63.1461 14.7256C63.1461 14.2295 63.1796 13.7478 63.2463 13.2803C63.3607 12.4695 63.6755 11.6586 64.1907 10.8477C64.4389 10.428 64.8636 9.98915 65.4643 9.53126C65.6743 9.38814 65.9078 9.25936 66.1656 9.14487C66.9285 8.85868 67.6919 8.5725 68.4553 8.28631C69.2279 8.00012 70.0004 7.71393 70.773 7.42774C70.9353 7.37047 71.0878 7.34189 71.2313 7.34189H71.3025C71.9133 7.37047 72.6528 7.52315 73.5205 7.79978C73.5968 7.82841 73.6446 7.84749 73.6639 7.857C73.8734 7.9429 74.1313 8.03826 74.4365 8.14319C74.5606 8.18138 74.675 8.20045 74.7798 8.20045C74.9323 8.20045 75.0661 8.15753 75.1805 8.07168C75.3809 7.89992 75.5238 7.75685 75.6098 7.64237C75.6576 7.57559 75.7197 7.54223 75.7959 7.54223C75.8438 7.54223 75.8916 7.55174 75.9389 7.57081C76.1489 7.64715 76.2537 7.74256 76.2537 7.857V18.9326C76.2537 19.5527 76.4922 19.9486 76.9693 20.1203C77.4463 20.2825 77.6849 20.4828 77.6849 20.7214C77.6849 20.9217 77.5847 21.0218 77.3843 21.0218H73.907C73.7448 21.0218 73.6639 20.9598 73.6639 20.8358V19.7769ZM73.6639 10.0178C73.2728 9.65525 72.7576 9.32136 72.1183 9.0161C71.4789 8.70127 70.9113 8.53435 70.4155 8.51528H70.3585C70.1673 8.51528 69.9765 8.55342 69.7858 8.62971C69.4425 8.75376 69.0992 8.88254 68.7554 9.0161C68.4218 9.14009 68.083 9.26414 67.7397 9.38814C67.5012 9.48355 67.3105 9.60755 67.167 9.76018C66.5755 10.3898 66.1798 11.153 65.9795 12.0497C65.8172 12.727 65.7364 13.3996 65.7364 14.0674C65.7364 14.2773 65.746 14.4919 65.7648 14.7113C65.8696 16.085 66.2419 17.2012 66.8812 18.0598C67.52 18.947 68.3216 19.5241 69.2849 19.7912C69.6475 19.8962 70.0147 19.9486 70.387 19.9486C70.5014 19.9486 70.6204 19.9439 70.7445 19.9343C70.9546 19.9152 71.2028 19.8532 71.4886 19.7483C71.7083 19.672 72.0516 19.548 72.519 19.3762C72.9864 19.195 73.3679 19.0471 73.6639 18.9326V10.0178Z" fill="white"/>
</svg>
